<?xml version="1.0" encoding="UTF-8"?>
<!DOCTYPE svg PUBLIC "-//W3C//DTD SVG 1.1//EN" "http://www.w3.org/Graphics/SVG/1.1/DTD/svg11.dtd">
<svg xmlns="http://www.w3.org/2000/svg" version="1.1" width="512px" height="512px" style="shape-rendering:geometricPrecision; text-rendering:geometricPrecision; image-rendering:optimizeQuality; fill-rule:evenodd; clip-rule:evenodd" xmlns:xlink="http://www.w3.org/1999/xlink">
<g><path style="opacity:0.995" fill="#d4d4d4" d="M 266.5,48.5 C 267.552,48.3505 268.552,48.5172 269.5,49C 286.014,65.3472 302.347,81.8472 318.5,98.5C 284.833,99.8333 251.167,99.8333 217.5,98.5C 233.855,81.8125 250.188,65.1459 266.5,48.5 Z"/></g>
<g><path style="opacity:0.991" fill="#d4d4d4" d="M 129.5,132.5 C 141.5,132.5 153.5,132.5 165.5,132.5C 197.167,214.5 228.833,296.5 260.5,378.5C 247.15,378.833 233.817,378.499 220.5,377.5C 213.762,360.285 207.429,342.951 201.5,325.5C 165.167,325.5 128.833,325.5 92.5,325.5C 86.5709,342.951 80.2376,360.285 73.5,377.5C 60.1833,378.499 46.85,378.833 33.5,378.5C 64.9099,296.27 96.9099,214.27 129.5,132.5 Z M 146.5,181.5 C 160.138,217.401 173.805,253.401 187.5,289.5C 160.5,290.833 133.5,290.833 106.5,289.5C 120.041,253.542 133.374,217.542 146.5,181.5 Z"/></g>
<g><path style="opacity:0.989" fill="#d4d4d4" d="M 284.5,133.5 C 343.833,133.5 403.167,133.5 462.5,133.5C 462.948,143.273 462.448,152.939 461,162.5C 419.5,222.667 378,282.833 336.5,343C 379.832,343.5 423.165,343.667 466.5,343.5C 466.5,355.167 466.5,366.833 466.5,378.5C 405.5,378.5 344.5,378.5 283.5,378.5C 283.334,368.494 283.5,358.494 284,348.5C 325.13,288.405 366.63,228.572 408.5,169C 367.168,168.5 325.835,168.333 284.5,168.5C 284.5,156.833 284.5,145.167 284.5,133.5 Z"/></g>
<g><path style="opacity:0.995" fill="#d4d4d4" d="M 217.5,413.5 C 250.998,412.336 284.664,412.169 318.5,413C 301.959,429.875 285.126,446.375 268,462.5C 251.006,446.339 234.173,430.006 217.5,413.5 Z"/></g>
</svg>
